<svg xmlns="http://www.w3.org/2000/svg" width="100" height="38.768" data-name="Group 403"><defs><clipPath id="a"><path fill="none" d="M0 0h100v38.768H0z" data-name="Rectangle 95"/></clipPath><clipPath id="b"><path fill="none" d="M.107 19.073a.421.421 0 0 0-.034.515.428.428 0 0 0 .353.182H13.08a.568.568 0 0 0 .451-.222l7.124-8.559L18.822.3l-2.367-.305Z" data-name="Path 139"/></clipPath><clipPath id="d"><path fill="none" d="M0 .429a.425.425 0 0 0 .075.239l11.939 13.768s9.3 9.306 4.567 15.413l8.794-10.224a3.424 3.424 0 0 0 .981-2.363v-.02a4.927 4.927 0 0 0-1.133-2.884L13.119.221a.569.569 0 0 0-.449-.22H.421A.428.428 0 0 0 0 .43" data-name="Path 140"/></clipPath><radialGradient id="c" cx="-.571" cy=".487" r="1.476" gradientTransform="matrix(.989 0 0 -1 -.027 1.902)" gradientUnits="objectBoundingBox"><stop offset="0" stop-color="#8dcfc6"/><stop offset=".785" stop-color="#00acab"/><stop offset=".817" stop-color="#00a5a4"/><stop offset=".861" stop-color="#009493"/><stop offset=".911" stop-color="#007675"/><stop offset=".967" stop-color="#004e4d"/><stop offset="1" stop-color="#003332"/></radialGradient><linearGradient id="e" x1="-1.688" x2="-1.683" y1="1.099" y2="1.099" gradientUnits="objectBoundingBox"><stop offset="0" stop-color="#8dcfc6"/><stop offset=".528" stop-color="#00a4a1"/><stop offset=".637" stop-color="#009e9b"/><stop offset=".778" stop-color="#008e8b"/><stop offset=".935" stop-color="#007471"/><stop offset="1" stop-color="#006765"/></linearGradient></defs><g data-name="Group 345"><g fill="#5a5b5e" clip-path="url(#a)" data-name="Group 344"><path d="M17.855 33.205a4.338 4.338 0 0 1-3.214 1.268 4.287 4.287 0 0 1-3.192-1.268c-1.015-1.057-1.269-2.41-1.269-4.229 0-1.8.254-3.15 1.269-4.207a4.288 4.288 0 0 1 3.192-1.268 4.339 4.339 0 0 1 3.214 1.268c1.015 1.057 1.269 2.41 1.269 4.207 0 1.818-.254 3.171-1.269 4.229m-1.628-7.167a2.186 2.186 0 0 0-1.586-.613 2.136 2.136 0 0 0-1.564.613 6.2 6.2 0 0 0 0 5.878 2.151 2.151 0 0 0 1.564.634 2.2 2.2 0 0 0 1.586-.634 6.206 6.206 0 0 0 0-5.878" data-name="Path 124"/><path d="M25.848 31.388a2.743 2.743 0 0 0 2.939 2.96h1.332v-1.839h-.956c-.867 0-1.163-.423-1.163-1.248V19.294h-1.948a.209.209 0 0 0-.209.209Z" data-name="Path 125"/><path d="M20.625 31.388a2.742 2.742 0 0 0 2.939 2.96h1.332v-1.839h-.951c-.867 0-1.163-.423-1.163-1.248V19.294h-1.948a.209.209 0 0 0-.209.209Z" data-name="Path 126"/><path d="M5.417 32.443a3.02 3.02 0 0 1-2.225-.909c-.74-.8-.888-1.687-.888-4.711s.148-3.907.888-4.711a3.02 3.02 0 0 1 2.225-.909 5.156 5.156 0 0 1 3 .967l1.122-1.672a7.4 7.4 0 0 0-4.129-1.354 5.451 5.451 0 0 0-3.95 1.616C-.021 22.239 0 23.927 0 26.823s-.021 4.584 1.459 6.064a5.453 5.453 0 0 0 3.95 1.615 7.4 7.4 0 0 0 4.129-1.354l-1.122-1.675a5.155 5.155 0 0 1-3 .968" data-name="Path 127"/><path d="M21.264 4.622a.21.21 0 0 0-.2-.285h-2l-2.491 7.545-2.558-7.548H12.03a.21.21 0 0 0-.2.28l3.64 9.933-.592 1.67c-.317.867-.634 1.142-1.543 1.142h-.468v1.945h.786a2.975 2.975 0 0 0 2.2-.782 3.464 3.464 0 0 0 .782-1.332Z" data-name="Path 128"/><path d="M51.553 2.563a1.271 1.271 0 0 1-1.259-1.259 1.26 1.26 0 0 1 2.519 0 1.271 1.271 0 0 1-1.26 1.259" data-name="Path 129"/><path d="M50.474 4.334h2.156v10.719h-2.156z" data-name="Rectangle 94"/><path d="M41.968 15.054h-1.947a.209.209 0 0 1-.209-.209V.209A.209.209 0 0 1 40.021 0h1.947v5.413a3.685 3.685 0 0 1 2.77-1.205c2.389 0 3.721 1.607 3.721 3.933v6.7a.209.209 0 0 1-.209.209h-1.947V8.345a2.167 2.167 0 0 0-4.334 0v6.709" data-name="Path 130"/><path d="M22.512 14.844a.209.209 0 0 0 .209.209h1.947V8.297a2.147 2.147 0 0 1 3.733-1.446h.01l1.231-1.946a3.316 3.316 0 0 0-2.174-.683 3.555 3.555 0 0 0-2.8 1.237V4.335h-1.947a.21.21 0 0 0-.209.21Z" data-name="Path 131"/><path d="M54.539 14.844a.209.209 0 0 0 .21.209h1.947V8.297a2.147 2.147 0 0 1 3.733-1.446h.01l1.231-1.946a3.316 3.316 0 0 0-2.174-.683 3.555 3.555 0 0 0-2.8 1.237V4.335h-1.947a.209.209 0 0 0-.21.21Z" data-name="Path 132"/><path d="M7.024-.001a.21.21 0 0 1 .194.13l5.366 14.641a.209.209 0 0 1-.2.283h-2.127L9.221 12.03H3.384l-1.036 3.023H.216a.209.209 0 0 1-.2-.283L5.387.13a.209.209 0 0 1 .193-.131Zm-.722 3.4-2.284 6.686h4.568L6.303 3.404" data-name="Path 133"/><path d="M36.724 6.879A4.111 4.111 0 0 0 34.097 6c-1.289-.047-1.954.5-1.968 1.3-.011.634.321.975 1.458 1.228l1.685.366c2 .429 3.172 1.134 3.139 3.036-.04 2.241-1.962 3.334-4.518 3.24a6.234 6.234 0 0 1-4.087-1.343l1.093-1.689a4.256 4.256 0 0 0 3.026 1.192c1.31.048 2.354-.379 2.371-1.394.013-.719-.383-1.032-1.416-1.25l-1.706-.369c-2-.429-3.152-1.107-3.119-2.989.037-2.093 1.854-3.211 4.093-3.129a6.363 6.363 0 0 1 3.614 1.067Z" data-name="Path 134"/><path d="M68.13 7.348a2.21 2.21 0 0 0-2.114-1.353 2.239 2.239 0 0 0-2.135 1.353 3.386 3.386 0 0 0-.275 1.459h4.82a3.384 3.384 0 0 0-.3-1.459m-1.834 5.962a4.546 4.546 0 0 0 2.676-.876l1.015 1.513a6.63 6.63 0 0 1-3.716 1.224c-2.685 0-4.8-1.418-4.8-5.5 0-3.468 1.8-5.476 4.546-5.476 2.876 0 4.515 2.114 4.515 5.159v.742a.21.21 0 0 1-.209.209h-6.716c0 1.839.935 3 2.69 3" data-name="Path 135"/><path d="M57.629 26.641a2.209 2.209 0 0 0-2.114-1.353 2.239 2.239 0 0 0-2.136 1.353 3.389 3.389 0 0 0-.275 1.459h4.82a3.383 3.383 0 0 0-.3-1.459m-1.834 5.962a4.546 4.546 0 0 0 2.676-.875l1.015 1.513a6.63 6.63 0 0 1-3.716 1.224c-2.685 0-4.8-1.417-4.8-5.5 0-3.468 1.8-5.476 4.546-5.476 2.875 0 4.515 2.114 4.515 5.159v.742a.209.209 0 0 1-.209.21h-6.709c0 1.839.936 3 2.69 3" data-name="Path 136"/><path d="M37.205 26.641a2.209 2.209 0 0 0-2.114-1.353 2.239 2.239 0 0 0-2.136 1.353 3.393 3.393 0 0 0-.275 1.459h4.82a3.382 3.382 0 0 0-.3-1.459m-1.834 5.962a4.546 4.546 0 0 0 2.676-.875l1.015 1.513a6.628 6.628 0 0 1-3.716 1.224c-2.685 0-4.8-1.417-4.8-5.5 0-3.468 1.8-5.476 4.546-5.476 2.875 0 4.515 2.114 4.515 5.159v.742a.21.21 0 0 1-.209.21h-6.716c0 1.839.936 3 2.69 3" data-name="Path 137"/><path d="M45.267 25.619c-1.945 0-2.2 1.67-2.2 3.361s.254 3.362 2.2 3.362 2.178-1.67 2.178-3.362-.232-3.361-2.178-3.361m-.284 13.149a6.786 6.786 0 0 1-3.746-1.209l1.035-1.515a4.533 4.533 0 0 0 2.656.885 2.418 2.418 0 0 0 2.517-2.728V33.06a3.305 3.305 0 0 1-2.77 1.226 3.549 3.549 0 0 1-2.558-.951c-1.036-1.036-1.2-2.537-1.2-4.355s.169-3.319 1.2-4.355a3.593 3.593 0 0 1 2.579-.93 3.288 3.288 0 0 1 2.815 1.268v-.932a.209.209 0 0 1 .209-.209h1.881v10.422a4.324 4.324 0 0 1-4.618 4.524" data-name="Path 138"/></g></g><g data-name="Group 347"><g clip-path="url(#b)" data-name="Group 346" transform="translate(71.604 16.441)"><path fill="url(#c)" d="M0 0h27.879v27.576H0z" data-name="Rectangle 96" transform="rotate(-30.9 5.08 18.359)"/></g></g><g data-name="Group 349"><g clip-path="url(#d)" data-name="Group 348" transform="translate(73.648 .023)"><path fill="url(#e)" d="M0 0h39.688v39.776H0z" data-name="Rectangle 97" transform="rotate(-43.95 10.382 25.679)"/></g></g></svg>