<?xml version="1.0" encoding="utf-8"?>
<!-- Generator: Adobe Illustrator 19.2.1, SVG Export Plug-In . SVG Version: 6.00 Build 0)  -->
<svg version="1.1" id="layer" xmlns="http://www.w3.org/2000/svg" xmlns:xlink="http://www.w3.org/1999/xlink" x="0px" y="0px"
	 viewBox="32 152 602 340" style="enable-background:new 0 0 652 652;" xml:space="preserve">
<style type="text/css">
	.st0{fill:#003DA6;}
	.st1{fill:#231F20;}
</style>
<path class="st0" d="M129.1,452.4c-0.2,0-0.3,0-0.5-0.1c-79.4-32.9-117-124-84.1-203.3c7.8-18.9,19.3-36.1,33.8-50.5
	c29-29,68.3-45.3,109.4-45.2h0.8c43.5,0.3,84.9,18.8,114.1,51c0.5,0.5,0.6,1.3,0.2,1.8c-0.2,0.3-0.6,0.5-1,0.5l0,0
	c-0.3,0-0.6-0.1-0.8-0.3c-27.5-25.5-63.6-39.8-101.1-40H199c-82.7,0.1-149.7,67-150,149.6C48.5,372.2,79.7,424,129.7,450
	c0.6,0.3,0.9,1.1,0.5,1.7C130,452.2,129.5,452.4,129.1,452.4L129.1,452.4z"/>
<path class="st0" d="M265.6,276.3c0-5.1,4.1-9.2,9.2-9.2H303v2.3c0,1.4-1,2.6-2.3,3l-1.8,0.3c-1.6,0.3-3.2,0.7-4.8,1.2
	c-3.5,1.1-4.4,3.7-4.4,6.9v51c0,19,8.6,27.3,24.6,27.3c15.6,0,25-9.8,25-28.2v-54.5c0-5.1,4.1-9.2,9.2-9.2c0,0,0,0,0,0h12v2.3
	c0,1.4-1,2.6-2.3,3l-0.7,0.1c-2,0.3-3.9,0.7-5.8,1.4c-3.5,1.1-4.4,3.7-4.4,6.9l0.1,52.5c0,10.4-3.6,18.8-10.7,25.3
	c-7,6.4-16.4,9.5-28.2,9.5c-27.3,0-42.9-13-42.9-35V276.3z"/>
<path class="st0" d="M251.3,301.7c0.1,0.2,0.2,0.4,0.3,0.6L251.3,301.7L251.3,301.7z"/>
<path class="st0" d="M260.5,340.3c-2.1-1.4-5-0.8-6.4,1.3l0,0c-7.6,11.3-16.6,16.9-28,16.9c-8.7,0-15.9-2.9-21-10
	c-5-6.5-8.3-17.3-8.3-32.4c0-27,9-42.6,26-42.6c13.1,0,21.9,8.7,28.5,28.1l0.3,0.6c0.8,1.4,2.3,2.2,3.8,2.2h2.8l0.1-28.6
	c-0.2-5-4.2-8.9-9.2-8.9h-27.1c-14.8,0-28.2,5.3-37.2,14.3c-9.4,9.3-14.8,22.3-14.8,37.1c0,14.9,5.4,27.8,14.4,36.2
	c9,8.7,21.7,13.4,35.7,13.4c11.6,0,19.9-3,27-8c6.5-4.4,11.4-10.8,15.2-18.7L260.5,340.3z"/>
<path class="st0" d="M161.1,322c-0.8-0.3-1.6-0.6-2.4-0.7c-0.4-0.1-0.9-0.1-1.3-0.1h-28.5v1.5c0,2.5,1.9,4.5,4.4,4.6h0.2h-0.2
	c2,0.4,4,0.9,5.8,1.7c3.5,1.7,4.3,3.7,4.3,6.9v19.5c-3.3,3.2-9.8,5.9-17.7,5.9c-17,0-26.6-16.9-26.6-45.1c0-26.6,9.8-42.6,27.1-42.6
	c13.8,0,22.9,8.9,29.4,28.1l0,0.1c0.7,1.7,2.3,2.7,4.1,2.8h2.7v-28.3c0-5.1-4.1-9.2-9.2-9.2h-28.1c-16,0-29.5,5-38.7,14.3
	c-9.4,9-14.4,22.1-14.4,37.1c0,16,5.5,28.6,14.8,36.9c9,8.4,21.6,12.7,35.4,12.7c8.2-0.1,16.4-1.3,24.4-3.6c5.8-1.5,11.5-3.5,17-6.1
	l0.7-0.3c1.4-0.8,2.2-2.3,2.3-3.8v-23.8C166.6,326.7,164.4,323.4,161.1,322z"/>
<path class="st0" d="M153.2,267.1L153.2,267.1"/>
<path class="st1" d="M181.8,410.9c-1.2,0.1-2.4,0.4-3.5,0.8c-1.1,0.5-1.5,1.6-1.5,2.9v7.5c0.1,0.7,0.1,1.4,0.1,1.9
	c-4.5,2.1-9.4,3.3-14.4,3.4c-5,0-9.7-1.9-13.3-5.4c-3.8-3.9-5.8-9.2-5.7-14.7c-0.1-5.5,1.9-10.8,5.6-14.9c3.7-3.8,8.7-5.8,14-5.8
	c3.5-0.1,7,0.9,10.1,2.7l1.1-1.9h2.2l0.2,13.6h-2.2c-0.6-3-1.8-5.8-3.6-8.3c-1.9-2.5-4.8-3.9-7.9-3.8c-3.7-0.1-7.2,1.7-9.2,4.8
	c-2.2,3-3.5,7.7-3.5,13.3c0,5,1.2,9.5,3.5,12.7c2.2,3.4,6,5.4,10,5.3c3.2,0,6.1-1.2,7.3-2.3c0.2-1.8,0.3-3.6,0.2-5.4v-2.1
	c0-1.5-0.3-2.8-1.6-3.3c-1.2-0.6-3.7-0.8-4.8-0.9v-2h17.1L181.8,410.9z"/>
<path class="st1" d="M196.4,426.5h-13.2v-1.8c0.9,0,1.7-0.2,2.5-0.3c1-0.3,1.5-1.1,1.5-2.5v-28.7c0-1.2-0.5-2.4-1.5-3.2
	c-1.3-0.5-2.6-0.8-4-0.9v-1.8l10.2-0.6l0.4,0.4v34.5c-0.1,1.1,0.5,2.1,1.5,2.5c0.8,0.4,1.7,0.6,2.5,0.6L196.4,426.5z"/>
<path class="st1" d="M438.6,426.5h-13.2v-1.8c0.9,0,1.7-0.2,2.5-0.3c1-0.3,1.5-1.1,1.5-2.5v-28.7c0-1.3-0.5-2.4-1.5-3.2
	c-1.3-0.5-2.6-0.8-3.9-0.9v-1.8l10.2-0.6l0.4,0.4v34.5c-0.1,1.1,0.5,2.1,1.5,2.5c0.8,0.4,1.7,0.6,2.5,0.6L438.6,426.5z"/>
<path class="st1" d="M224.8,426c-1.4,0.7-2.9,1-4.4,1.1c-2.9,0-4.6-1.4-5.1-3.9h-0.2c-2.4,2.6-5,4.1-8.8,4.1c-4.1,0-7-2.7-7-6.8
	c-0.1-1.8,0.6-3.6,1.8-5c1.1-1.1,2.5-2,3.9-2.5c0.8-0.3,2.5-0.8,5-1.7c1.7-0.5,3.5-1.2,5.1-2v-2.7c-0.1-1.1-0.3-2.3-0.8-3.3
	c-0.8-1.6-2.6-2.6-4.4-2.5c-1.4,0-2.8,0.4-3.9,1.3c0,0.7,0.5,2.4,0.5,3.6c0,1.2-1.2,2.5-3.3,2.5c-1.9,0-2.7-1.5-2.7-3.2
	s1.3-3.3,3.3-4.4c1.9-1.2,4.2-1.8,6.4-1.9c3.1,0,5.3,0.3,7.2,1.7s2.9,3.6,2.9,7.3c0,5.2-0.2,8.8-0.2,13.6c-0.1,1.2,0.5,2.3,1.5,2.8
	c1,0.3,2.1,0.4,3.1,0.3L224.8,426z M215.2,411.5c-3.2,1-5.4,1.7-7.4,3c-1.8,1.1-3,3.1-3,5.2c0,3,1.8,4.4,4.2,4.4
	c2.4-0.1,4.6-1.2,5.9-3.2L215.2,411.5z"/>
<path class="st1" d="M247.3,418.7c0.1,2.4-1,4.7-2.9,6.2c-2.1,1.7-4.7,2.5-7.3,2.4c-2.6-0.1-5.1-0.9-7.2-2.4l-0.6,1.7h-2l-0.3-9.4
	h1.9c0.5,1.9,1.4,3.6,2.7,5.1c1.5,1.8,3.6,2.8,5.9,2.9c3.5,0,5.5-1.6,5.5-4.6c0-1.4-0.7-2.7-1.8-3.4c-1.6-1-3.3-1.8-5.2-2.2
	c-2-0.5-3.9-1.4-5.6-2.6c-1.7-1.4-2.8-3.5-2.8-5.7c0-2.1,0.9-4.2,2.5-5.6c1.8-1.6,4.2-2.4,6.6-2.3c2.1,0,4.1,0.5,5.9,1.4l0.6-1.5h2
	l0.4,8.7h-1.9c-0.7-3.9-3.5-6.6-7.2-6.6c-3,0-4.8,1.8-4.8,3.9c-0.1,1.4,0.6,2.7,1.7,3.4c1.6,0.9,3.4,1.6,5.2,2.1
	c2.2,0.6,4.3,1.6,6.1,3C246.4,414.6,247.3,416.6,247.3,418.7z"/>
<path class="st1" d="M276.3,429.3c0,2.6-1.2,5.1-3.4,6.6c-2.5,1.7-5.7,2.8-10.8,2.8c-8.2,0-12.2-2.4-12.2-7.1c0-3.7,3.3-5.9,7.8-6.2
	v-0.3c-1.1-0.3-2.2-0.9-3.2-1.5c-1-0.8-1.6-2-1.6-3.3c0-2,1.3-3.7,4.1-4.8v-0.4c-3.4-1.6-5.5-4.2-5.5-7.6c-0.1-2.4,1-4.7,2.9-6.3
	c2.1-1.7,4.7-2.6,7.3-2.5c1.7,0.1,3.4,0.4,5,0.9h9.4v2.6h-6.4v0.2c1.3,1.5,2,3.5,2,5.5c0,2.4-1.1,4.6-2.9,6
	c-1.9,1.6-4.3,2.5-6.8,2.5h-3.3c-1.1,0.3-1.9,1.2-2,2.4c0,1.2,0.8,2.1,2,2.2c1.3,0.3,2.7,0.4,4.1,0.4c0.8,0,1.9,0.1,3.3,0.2
	c1.4,0.1,2.4,0.1,3,0.2c1.8,0.1,3.6,0.8,4.9,2.1C275.5,425.1,276.4,427.2,276.3,429.3z M268.9,426.5c-2.9-0.3-5.8-0.4-8.7-0.4
	c-4,0.7-5.5,2.5-5.5,5.4c0,1.4,0.7,2.7,1.9,3.5c1.3,1,3.4,1.6,6.5,1.6c5.4,0,8.7-2,8.7-6.3C272,428.5,270.7,426.8,268.9,426.5z
	 M261.6,400.6c-1.5-0.1-3,0.7-3.7,2c-0.7,1.5-1.1,3.2-1,4.8c0,4.1,1.9,6.9,4.8,6.9c3.2,0,4.9-2.9,4.9-6.7
	C266.5,403.3,264.7,400.6,261.6,400.6z"/>
<path class="st1" d="M301.1,423c-2.5,2.9-6.2,4.5-10,4.3c-3.4,0-6.7-1.4-9.1-3.8c-2.7-2.8-4.1-6.6-3.9-10.5c0-4.2,1.2-7.7,3.7-10.4
	c5.2-5.3,13.7-5.4,19-0.2c0,0,0,0,0,0c2.5,2.5,3.7,5.9,3.7,10.2C304.7,416.4,303.5,420.1,301.1,423z M297.3,404.5
	c-1.2-2.2-3-3.8-5.8-3.8c-2.6-0.1-5,1.5-6,3.9c-1.2,2.5-1.7,5.2-1.6,8c0,3.5,0.5,6.5,1.8,8.9c1.3,2.4,3.1,3.8,5.9,3.8
	c4.6,0,7.4-4.7,7.4-12.6C298.9,410,298.4,406.6,297.3,404.5z"/>
<path class="st1" d="M347.5,401.1c-2,0.3-3.7,1.6-4.4,3.5c-1.9,5.4-3.3,9.8-5.3,15.8c-0.7,1.9-1.4,4.2-1.9,6.2h-2.4l-7.3-19.9
	l-7.4,19.9h-2.3c-1.3-4.1-2.7-8.1-4-12c-1.3-4-2.5-7.5-3.5-10.5c-0.7-1.6-2.3-2.8-4.1-2.9v-1.8h12v1.9c-1.2,0-3,0.3-3,1.2
	c0,0.4,0.2,0.8,0.3,1.2c1.1,3.8,2.5,8.1,4.8,15.7l6.9-19.5h2.6l7,19.3c1.6-4.9,3.3-9.6,4.4-13.6c0.3-0.8,0.4-1.6,0.5-2.5
	c0-0.6-0.6-1.2-1.5-1.5c-0.7-0.3-1.4-0.4-2.1-0.4v-1.7h10.3V401.1z"/>
<path class="st1" d="M366.6,422c-3.2-3.4-5.3-8.5-5.3-14.7s2-11.4,5.4-15c6-6.3,15.5-7.5,22.9-3l1.1-1.9h2.2l0.3,13.9h-2.3
	c-0.6-3-1.7-5.9-3.4-8.5c-1.6-2.5-4.3-4-7.3-4c-3.6,0-7,1.8-9,4.7c-2.1,2.9-3.4,7.6-3.4,13.3c0,5,1.2,9.2,3.7,12.4
	c3.8,5.3,11.1,6.5,16.4,2.8c0.2-0.1,0.3-0.2,0.5-0.4c1.8-1.7,3.3-3.8,4.1-6.1l2,1c-3.1,7.7-8.3,10.8-15.5,10.8
	C374.3,427.3,369.8,425.4,366.6,422z"/>
<path class="st1" d="M422.3,426c-1.4,0.7-2.9,1-4.4,1.1c-2.9,0-4.6-1.4-5.1-3.9h-0.1c-2.4,2.6-5,4.1-8.8,4.1c-4.1,0-7-2.7-7-6.8
	c-0.1-1.8,0.6-3.6,1.7-5c1.1-1.1,2.4-2,3.9-2.5c0.8-0.3,2.5-0.8,5-1.7c1.7-0.5,3.5-1.2,5.1-2v-2.7c-0.1-1.1-0.3-2.3-0.8-3.3
	c-0.8-1.6-2.6-2.6-4.4-2.5c-1.4,0-2.8,0.4-3.9,1.3c0,0.7,0.5,2.4,0.5,3.6c0,1.2-1.2,2.5-3.3,2.5c-1.9,0-2.7-1.5-2.7-3.2
	s1.3-3.3,3.3-4.4c1.9-1.2,4.1-1.8,6.4-1.9c3.1,0,5.3,0.3,7.2,1.7c1.9,1.4,2.9,3.6,2.9,7.3c0,5.2-0.2,8.8-0.2,13.6
	c-0.1,1.2,0.5,2.3,1.5,2.8c1,0.3,2.1,0.4,3.1,0.3L422.3,426z M412.8,411.5c-3.2,1-5.4,1.7-7.4,3c-1.8,1.1-3,3.1-3,5.2
	c0,3,1.8,4.4,4.2,4.4c2.4-0.1,4.6-1.2,5.9-3.2L412.8,411.5z"/>
<path class="st1" d="M465,420.1c-2.3,4.2-6.2,7.1-11.1,7.1c-4.3,0-7.6-1.6-9.8-4.2c-2.2-3-3.3-6.6-3.2-10.2c0-3.5,1.1-7,3.3-9.7
	c2.2-2.8,5.5-4.4,9.1-4.3c4,0,6.8,1.3,8.6,3.5c1.7,2.4,2.6,5.2,2.5,8.2v1.8h-18c0,3.6,0.6,6.5,2.1,8.7c1.6,2.3,4.2,3.5,6.9,3.4
	c3.2,0,5.4-1.3,7.6-5.2L465,420.1z M458.9,409.8c0-2-0.3-4.7-1.1-6.3c-0.8-1.8-2.6-2.9-4.6-2.8c-3.8,0-6.6,3.4-6.9,9.1H458.9z"/>
<path class="st1" d="M497.2,426l-9.4,0.6l-0.4-0.4v-2.5l-0.2-0.1c-2,2.3-4.8,3.6-7.8,3.7c-3.2,0-6.2-1.5-8.2-3.9
	c-2.4-3-3.7-6.7-3.6-10.5c0-3.8,1.3-7.4,3.8-10.2c2.3-2.5,5.6-4,9.1-4.1c2.4,0,4.8,0.6,6.9,1.7v-6.8c0.1-1.3-0.4-2.7-1.5-3.5
	c-1-0.7-2.9-0.9-4.9-1.1v-1.7l11.1-0.6l0.4,0.4v33.9c-0.1,1.1,0.5,2.2,1.4,2.8c1.1,0.4,2.2,0.6,3.3,0.5L497.2,426z M487.2,405.4
	c-0.4-1.2-1-2.2-1.9-3c-1.2-1-2.8-1.6-4.4-1.6c-2.2,0-4.1,1.2-5.5,3.3c-1.4,2.1-2.2,5.4-2.2,9.2c-0.1,2.7,0.5,5.4,1.9,7.7
	c1.3,2.1,3.6,3.4,6,3.4c2.4,0,4.6-1.1,6.1-3L487.2,405.4z"/>
<path class="st1" d="M520.7,423c-2.5,2.9-6.2,4.5-10,4.3c-3.4,0-6.7-1.4-9-3.8c-2.7-2.8-4.1-6.6-3.9-10.5c0-4.2,1.2-7.7,3.7-10.4
	c5.2-5.3,13.7-5.4,19-0.2c0,0,0,0,0,0c2.5,2.5,3.7,5.9,3.7,10.2C524.3,416.4,523.1,420.1,520.7,423z M516.9,404.5
	c-1.2-2.2-3-3.8-5.8-3.8c-2.6-0.1-5,1.5-6,3.9c-1.1,2.5-1.7,5.2-1.6,8c0,3.5,0.5,6.5,1.8,8.9c1.3,2.4,3.1,3.8,5.9,3.8
	c4.6,0,7.4-4.7,7.4-12.6C518.5,410,518,406.6,516.9,404.5L516.9,404.5z"/>
<path class="st1" d="M556.2,426.5h-13.3v-1.8c0.9,0,1.8-0.1,2.6-0.3c1.1-0.3,1.5-1.1,1.5-2.5v-14c0-3.8-2.1-6-4.7-6
	c-1.7,0-3.4,0.6-4.8,1.6c-0.9,0.7-1.7,1.5-2.2,2.5v15.6c-0.1,1.1,0.5,2.1,1.5,2.5c0.8,0.4,1.7,0.6,2.6,0.6v1.8h-13.3v-1.8
	c0.8,0,1.7-0.1,2.5-0.3c1.1-0.3,1.5-1.1,1.5-2.5v-16.7c0-1.2-0.5-2.3-1.5-3c-0.9-0.4-1.8-0.7-2.8-0.7v-1.8l9-0.6l0.4,0.4v3.8h0.1
	c1.1-1.1,2.3-2.1,3.5-3c1.7-1.1,3.6-1.6,5.6-1.6c5.2,0,7.6,3.5,7.6,8.9v14.1c-0.2,1.1,0.5,2.1,1.5,2.5c0.8,0.4,1.6,0.6,2.5,0.6
	L556.2,426.5z"/>
<path class="st1" d="M572.1,426.5H559v-1.8c0.8,0,1.7-0.1,2.5-0.3c1.1-0.3,1.5-1.1,1.5-2.5v-16.7c0-1.1-0.6-2.2-1.5-2.9
	c-1-0.5-2.2-0.8-3.3-0.8v-1.8l9.6-0.6l0.4,0.4v22.1c-0.2,1.1,0.5,2.2,1.5,2.5c0.8,0.3,1.6,0.5,2.5,0.6L572.1,426.5z M565,394.1
	c-1.9-0.1-3.4-1.7-3.4-3.7c-0.1-2,1.4-3.6,3.4-3.8c2,0,3.6,1.6,3.6,3.5C568.7,392.2,567.1,394,565,394.1L565,394.1z"/>
<path class="st1" d="M228.7,479.3h-13.1v-1.8c0.8,0,1.7-0.1,2.5-0.3c1.1-0.3,1.5-1.1,1.5-2.5V458c0-1.1-0.6-2.2-1.5-2.9
	c-1-0.5-2.2-0.8-3.3-0.8v-1.8l9.6-0.6l0.4,0.4v22.1c-0.2,1.1,0.5,2.2,1.5,2.5c0.8,0.3,1.6,0.5,2.5,0.6L228.7,479.3z M221.7,446.9
	c-1.9-0.1-3.4-1.7-3.4-3.7c-0.1-2,1.4-3.6,3.4-3.8c2,0,3.6,1.6,3.6,3.5C225.3,445.1,223.7,446.8,221.7,446.9L221.7,446.9z"/>
<path class="st1" d="M343,479.3h-13.1v-1.8c0.8,0,1.7-0.1,2.5-0.3c1.1-0.3,1.5-1.1,1.5-2.5V458c0-1.1-0.6-2.2-1.5-2.9
	c-1-0.5-2.2-0.8-3.3-0.8v-1.8l9.6-0.6l0.4,0.4v22.1c-0.2,1.1,0.5,2.2,1.5,2.5c0.8,0.3,1.6,0.5,2.5,0.6L343,479.3z M335.9,446.9
	c-1.9-0.1-3.4-1.7-3.4-3.7c-0.1-2,1.4-3.6,3.4-3.8c2,0,3.6,1.6,3.6,3.5C339.6,445.1,338,446.8,335.9,446.9L335.9,446.9z"/>
<path class="st1" d="M600.5,426c-1.4,0.7-2.9,1-4.4,1.1c-2.9,0-4.6-1.4-5.1-3.9h-0.2c-2.4,2.6-5,4.1-8.8,4.1c-4.1,0-7-2.7-7-6.8
	c-0.1-1.8,0.6-3.6,1.7-5c1.1-1.1,2.4-2,3.9-2.5c0.8-0.3,2.5-0.8,5-1.7c1.7-0.5,3.5-1.2,5.1-2v-2.7c-0.1-1.1-0.3-2.3-0.8-3.3
	c-0.8-1.6-2.6-2.6-4.4-2.5c-1.4,0-2.8,0.4-3.9,1.3c0,0.7,0.5,2.4,0.5,3.6c0,1.2-1.2,2.5-3.3,2.5c-1.9,0-2.7-1.5-2.7-3.2
	s1.3-3.3,3.3-4.4c1.9-1.2,4.1-1.8,6.4-1.9c3.1,0,5.3,0.3,7.2,1.7c1.9,1.4,2.9,3.6,2.9,7.3c0,5.2-0.2,8.8-0.2,13.6
	c-0.1,1.2,0.5,2.3,1.5,2.8c1,0.3,2.1,0.4,3.1,0.3L600.5,426z M590.9,411.5c-3.2,1-5.4,1.7-7.4,3c-1.8,1.1-3,3.1-3,5.2
	c0,3,1.8,4.4,4.2,4.4c2.4-0.1,4.6-1.2,5.9-3.2L590.9,411.5z"/>
<path class="st1" d="M632.6,426.5h-13.3v-1.8c0.9,0,1.8-0.1,2.6-0.3c1.1-0.3,1.5-1.1,1.5-2.5v-14c0-3.8-2.1-6-4.7-6
	c-1.7,0-3.4,0.6-4.8,1.6c-0.9,0.7-1.7,1.5-2.2,2.5v15.6c-0.1,1.1,0.5,2.1,1.5,2.5c0.8,0.4,1.7,0.6,2.6,0.6v1.8h-13.3v-1.8
	c0.8,0,1.7-0.1,2.5-0.3c1.1-0.3,1.5-1.1,1.5-2.5v-16.7c0-1.2-0.5-2.3-1.5-3c-0.9-0.4-1.8-0.7-2.8-0.7v-1.8l9-0.6l0.4,0.4v3.8h0.1
	c1.1-1.1,2.3-2.1,3.6-3c1.7-1.1,3.6-1.6,5.6-1.6c5.2,0,7.6,3.5,7.6,8.9v14.1c-0.2,1.1,0.5,2.1,1.5,2.5c0.8,0.4,1.6,0.6,2.5,0.6
	L632.6,426.5z"/>
<path class="st1" d="M183.6,442.3c-1.6,0-3.2,0.5-4.7,1.2c-1.3,0.8-1.7,3.6-1.7,7.4v17c0.1,3.8-1.7,7.4-4.9,9.6
	c-2.7,1.9-5.9,2.8-9.2,2.8c-4.7,0-8.4-1.3-10.9-3.4c-2.4-1.9-3.7-4.8-3.7-7.8V446c0.1-1.2-0.5-2.3-1.6-2.8c-1.1-0.5-2.3-0.8-3.5-0.9
	v-2h16.3v2c-1.2,0.1-2.5,0.3-3.7,0.7c-1.3,0.4-1.6,1.6-1.6,2.8v21.6c-0.1,2.3,0.5,4.5,1.7,6.5c1.4,2,3.7,3.4,8,3.4
	c4.1,0,6.7-1.4,8.3-3.5c1.4-1.8,2.1-4.1,2.1-6.4v-16c0-4.1-0.6-6.8-1.7-7.5c-0.8-0.6-1.7-0.9-2.6-1.1c-0.8-0.2-1.7-0.4-2.5-0.4v-2
	h16V442.3z"/>
<path class="st1" d="M212.8,479.3h-13.3v-1.8c0.9,0,1.8-0.1,2.6-0.3c1.1-0.3,1.5-1.1,1.5-2.5v-14c0-3.8-2.1-6-4.7-6
	c-1.7,0-3.4,0.6-4.8,1.6c-0.9,0.7-1.7,1.5-2.2,2.5v15.6c-0.1,1.1,0.5,2.1,1.5,2.5c0.8,0.4,1.7,0.6,2.6,0.6v1.8h-13.3v-1.8
	c0.8,0,1.7-0.1,2.5-0.3c1.1-0.3,1.5-1.1,1.5-2.5V458c0-1.2-0.5-2.3-1.5-3c-0.9-0.4-1.8-0.7-2.8-0.7v-1.8l9-0.6l0.4,0.4v3.8h0.1
	c1.1-1.1,2.3-2.1,3.5-3c1.7-1.1,3.6-1.6,5.6-1.6c5.2,0,7.6,3.5,7.6,8.9v14.1c-0.2,1.1,0.5,2.1,1.5,2.5c0.8,0.4,1.6,0.6,2.5,0.6
	L212.8,479.3z"/>
<path class="st1" d="M256.8,453.9c-1.9,0.3-3.5,1.5-4.2,3.3c-2.2,5-4.4,10.2-6.9,16.1c-0.7,1.7-1.6,4.2-2.3,6.3h-2.2
	c-3.4-8.6-6.2-15.2-9.3-22.6c-0.8-1.6-2.4-2.7-4.2-2.9v-1.8h12.5v1.9c-0.7,0-1.4,0.1-2,0.3c-0.8,0.2-1.2,0.4-1.2,0.8
	c0,0.2,0.2,0.6,0.4,1.2c0.7,1.9,1.8,4.5,3.2,7.8c1.4,3.3,2.5,6,3.4,8.1c1.3-3.2,3.4-7.9,5.7-13.7c0.4-0.8,0.7-1.8,0.8-2.7
	c0-0.6-0.7-1.2-1.6-1.5c-0.7-0.3-1.4-0.5-2.2-0.6v-1.7h10.3V453.9z"/>
<path class="st1" d="M281,473c-2.2,4.2-6.2,7.1-11.1,7.1c-4.3,0-7.6-1.6-9.8-4.2c-2.2-3-3.3-6.6-3.2-10.2c0-3.5,1.1-7,3.3-9.7
	c2.2-2.8,5.5-4.4,9.1-4.4c4,0,6.8,1.3,8.6,3.5c1.7,2.4,2.6,5.2,2.5,8.2v1.8h-18c0,3.6,0.6,6.5,2.1,8.7c1.6,2.3,4.2,3.5,6.9,3.4
	c3.2,0,5.4-1.3,7.6-5.2L281,473z M274.9,462.6c0-2-0.3-4.7-1.1-6.3c-0.8-1.8-2.6-2.9-4.6-2.8c-3.8,0-6.6,3.4-6.9,9.1L274.9,462.6z"
	/>
<path class="st1" d="M301.5,459.3c-2,0-3.2-1.2-3.2-2.5c0-0.7,0.1-1.4,0.3-2.1c-1.7,0-4.4,1.5-5.9,4v15.8c-0.1,1.1,0.5,2.1,1.5,2.5
	c1.2,0.4,2.4,0.6,3.7,0.6v1.8h-14.3v-1.8c0.8,0,1.7-0.1,2.5-0.3c1.1-0.3,1.5-1.1,1.5-2.5V458c0-1.2-0.6-2.3-1.5-3
	c-0.9-0.4-1.8-0.7-2.8-0.7v-1.8l9-0.6l0.4,0.4v3.8h0.1c2.2-2.9,5.3-4.5,7.6-4.5c2.3,0,3.9,1.6,3.9,4.2
	C304.3,457.6,303.3,459.3,301.5,459.3z"/>
<path class="st1" d="M326.3,471.5c0.1,2.4-1,4.7-2.9,6.2c-2.1,1.6-4.6,2.5-7.3,2.4c-2.6-0.1-5.1-0.9-7.2-2.4l-0.6,1.7h-2l-0.3-9.4
	h1.9c0.5,1.9,1.4,3.6,2.7,5.1c1.5,1.8,3.6,2.8,5.9,2.9c3.5,0,5.5-1.6,5.5-4.6c0-1.4-0.7-2.6-1.8-3.4c-1.6-1-3.3-1.8-5.2-2.2
	c-2-0.5-3.9-1.4-5.6-2.6c-1.7-1.4-2.8-3.5-2.8-5.7c0-2.1,0.9-4.2,2.5-5.6c1.8-1.6,4.2-2.4,6.6-2.3c2.1,0,4.1,0.5,5.9,1.4l0.6-1.5h2
	l0.4,8.7H323c-0.7-3.9-3.5-6.6-7.2-6.6c-3,0-4.8,1.8-4.8,3.9c-0.1,1.4,0.6,2.7,1.7,3.4c1.6,0.9,3.4,1.6,5.2,2.1
	c2.2,0.6,4.3,1.6,6.1,3C325.5,467.4,326.4,469.4,326.3,471.5z"/>
<path class="st1" d="M361.1,478.1c-2.4,1-4.2,1.7-7.3,1.7c-4.5,0-6.2-2.4-6.2-6.5V455h-4.9v-2.6h5v-8.5h5v8.5h7.8v2.6h-7.7v15.1
	c0,2.3,0.1,3.7,0.7,4.8c0.7,1.1,1.7,1.6,3.7,1.6c1.3,0,2.6-0.2,3.9-0.4L361.1,478.1z"/>
<path class="st1" d="M365.7,485.1c1,0,2,0.4,2.6,1.2c0.6,0.7,1.2,1.5,1.6,2.3c1-0.5,2-1.8,3.3-3.9c1.1-1.7,2-3.6,2.8-5.5
	c-1.7-4.3-3.4-8.2-4.8-11.7c-1.4-3.4-2.9-7-4.4-10.6c-0.7-1.7-2.6-2.6-4.2-2.9v-1.8H375v1.9c-0.7,0-1.3,0.1-2,0.3
	c-0.7,0.2-1.1,0.4-1.1,0.7c0.1,0.5,0.2,0.9,0.4,1.3c0.7,1.8,1.8,4.4,3.2,7.8c1.4,3.4,2.5,6.1,3.3,8.2c1.6-3.9,3.3-7.8,5.5-13.5
	c0.5-1,0.8-2,1-3c0-0.5-0.4-1-1.3-1.3c-0.7-0.4-1.5-0.6-2.4-0.7v-1.7h10.1v1.7c-1.8,0.4-3.3,1.6-4.2,3.2c-2.2,5.1-4.1,9.7-5.9,13.9
	c-1.7,4.2-2.9,7.2-3.8,9.2c-2.3,5.1-4,7.8-5.7,9.4c-1.7,1.6-2.9,2-4.4,2c-2.9,0-4.6-1.6-4.6-3.4S364.2,485.1,365.7,485.1z"/>
</svg>
