<?xml version="1.0" encoding="UTF-8"?>
<svg version="1.1" xmlns="http://www.w3.org/2000/svg" width="500" height="500">
<path d="M0 0 C1.10084106 -0.00445784 2.20168213 -0.00891569 3.33588201 -0.01350862 C4.53994355 -0.01332426 5.74400509 -0.01313989 6.98455334 -0.01294994 C8.90963176 -0.01846498 8.90963176 -0.01846498 10.87360066 -0.02409142 C14.43431299 -0.03409066 17.99500847 -0.03782489 21.55573285 -0.04048073 C25.39716659 -0.04439011 29.23858707 -0.0539682 33.08001232 -0.0626936 C42.35802551 -0.08244307 51.63603977 -0.0925236 60.91406873 -0.10142139 C65.28779612 -0.10580793 69.66152231 -0.1111739 74.03524876 -0.11641026 C88.58345602 -0.13342319 103.13166255 -0.14791508 117.67987823 -0.155159 C121.45405929 -0.15706877 125.22824034 -0.15898912 129.00242138 -0.16094494 C129.94043117 -0.16142868 130.87844097 -0.16191242 131.8448753 -0.16241082 C147.02365686 -0.17070255 162.20235939 -0.19602466 177.38110647 -0.22852562 C192.98003478 -0.26165264 208.57892301 -0.27961296 224.17788666 -0.28280324 C232.92984046 -0.28496342 241.68167911 -0.29363954 250.43359852 -0.31926441 C257.89095822 -0.34104888 265.3481748 -0.34898407 272.80556271 -0.33929763 C276.6050665 -0.33477484 280.4042755 -0.3365198 284.20373821 -0.35605907 C313.32847605 -0.4976643 313.32847605 -0.4976643 326.49436474 4.13422108 C327.29168168 4.39447921 328.08899862 4.65473734 328.91047668 4.92288208 C357.30989618 14.71246272 379.5484729 35.28387454 392.7441206 62.03607655 C395.97247527 68.86014756 398.45798395 75.86481524 400.49436474 83.13422108 C400.66803745 83.74959661 400.84171016 84.36497215 401.02064568 84.99899542 C402.71923278 91.70294968 402.7824936 98.19753797 402.7685194 105.08524036 C402.77375608 106.36992698 402.77899276 107.6546136 402.78438812 108.97823012 C402.79849305 112.5241329 402.80023285 116.06994772 402.79979122 119.61587453 C402.80144616 123.44844462 402.81452549 127.28097917 402.825984 131.11353016 C402.84878373 139.48590629 402.85674963 147.85825699 402.86181045 156.23065996 C402.86507422 161.46637662 402.87160091 166.70208598 402.87881184 171.9377985 C402.89837352 186.45613778 402.91477949 200.97447029 402.91768837 215.4928236 C402.91787594 216.42099299 402.91806351 217.34916237 402.91825676 218.30545811 C402.918623 220.18680962 402.9189867 222.06816113 402.91934787 223.94951265 C402.91953069 224.88332287 402.9197135 225.8171331 402.91990185 226.77924061 C402.92017267 228.18168189 402.92017267 228.18168189 402.92044897 229.61245532 C402.9239865 244.7437164 402.95098445 259.87483481 402.98839974 275.00604646 C403.02657469 290.57009152 403.04584653 306.13406598 403.04614788 321.69815886 C403.04673049 330.42501921 403.0550947 339.15170945 403.08414555 347.87852573 C403.10878303 355.31340713 403.11585982 362.74805642 403.10089802 370.18296771 C403.09377847 373.96875211 403.09436869 377.75407937 403.11730862 381.53981113 C403.30227525 414.03113744 396.40943881 438.86363673 375.49436474 464.13422108 C374.86014599 464.96566639 374.22592724 465.7971117 373.57248974 466.65375233 C369.80756702 471.14759805 365.09298015 474.53267734 360.49436474 478.13422108 C359.22399364 479.16289295 359.22399364 479.16289295 357.92795849 480.21234608 C343.7131785 491.2369388 323.20715132 500.23411915 304.98872948 500.26844215 C303.88788841 500.2729 302.78704735 500.27735784 301.65284747 500.28195077 C300.44878593 500.28176641 299.24472439 500.28158205 298.00417614 500.2813921 C296.07909771 500.28690713 296.07909771 500.28690713 294.11512882 500.29253358 C290.55441648 500.30253282 286.99372101 500.30626704 283.43299663 500.30892289 C279.59156289 500.31283227 275.75014241 500.32241035 271.90871716 500.33113575 C262.63070396 500.35088522 253.3526897 500.36096575 244.07466075 500.36986354 C239.70093335 500.37425008 235.32720716 500.37961605 230.95348072 500.38485241 C216.40527345 500.40186535 201.85706693 500.41635724 187.30885124 500.42360115 C183.53467018 500.42551093 179.76048913 500.42743127 175.9863081 500.42938709 C175.0482983 500.42987083 174.11028851 500.43035457 173.14385418 500.43085297 C157.96507262 500.4391447 142.78637009 500.46446682 127.607623 500.49696777 C112.0086947 500.5300948 96.40980646 500.54805512 80.81084281 500.55124539 C72.05888902 500.55340558 63.30705036 500.56208169 54.55513096 500.58770657 C47.09777126 500.60949103 39.64055467 500.61742622 32.18316676 500.60773978 C28.38366298 500.603217 24.58445398 500.60496195 20.78499126 500.62450123 C-8.33974657 500.76610645 -8.33974657 500.76610645 -21.50563526 496.13422108 C-22.70161067 495.74383388 -22.70161067 495.74383388 -23.92174721 495.34556007 C-52.39537919 485.5303976 -74.52740656 465.04705869 -87.75563526 438.23212147 C-90.9836037 431.40795343 -93.46926907 424.40357482 -95.50563526 417.13422108 C-95.76614433 416.21115778 -95.76614433 416.21115778 -96.0319162 415.26944673 C-97.73050331 408.56549247 -97.79376412 402.07090419 -97.77978992 395.18320179 C-97.7850266 393.89851517 -97.79026328 392.61382855 -97.79565865 391.29021204 C-97.80976357 387.74430925 -97.81150337 384.19849444 -97.81106174 380.65256763 C-97.81271668 376.81999754 -97.82579601 372.98746298 -97.83725452 369.15491199 C-97.86005425 360.78253586 -97.86802015 352.41018516 -97.87308097 344.03778219 C-97.87634474 338.80206553 -97.88287144 333.56635618 -97.89008236 328.33064365 C-97.90964404 313.81230437 -97.92605001 299.29397186 -97.92895889 284.77561855 C-97.92924025 283.38336447 -97.92924025 283.38336447 -97.92952729 281.96298405 C-97.92989352 280.08163254 -97.93025722 278.20028102 -97.9306184 276.31892951 C-97.93080121 275.38511928 -97.93098402 274.45130905 -97.93117237 273.48920155 C-97.93135292 272.55424069 -97.93153347 271.61927983 -97.93171949 270.65598683 C-97.93525702 255.52472575 -97.96225498 240.39360735 -97.99967026 225.26239569 C-98.03784521 209.69835063 -98.05711705 194.13437618 -98.05741841 178.57028329 C-98.05800101 169.84342295 -98.06636523 161.1167327 -98.09541607 152.38991642 C-98.12005355 144.95503502 -98.12713034 137.52038573 -98.11216854 130.08547445 C-98.10504899 126.29969005 -98.10563922 122.51436278 -98.12857914 118.72863102 C-98.32827316 83.65028582 -89.83829075 55.72232582 -64.88063526 30.13422108 C-48.43392806 13.80476701 -23.71467283 0.04467779 0 0 Z " fill="#000000" transform="translate(97.50563526153564,-0.13422107696533203)"/>
<path d="M0 0 C22.45630991 0.31594375 45.78756028 13.35102189 64.1484375 25.2578125 C68.07498462 27.86623962 68.07498462 27.86623962 72.57104492 28.07714844 C73.36615479 27.8815332 74.16126465 27.68591797 74.98046875 27.484375 C75.8832959 27.27063232 76.78612305 27.05688965 77.71630859 26.83666992 C78.69680176 26.60181885 79.67729492 26.36696777 80.6875 26.125 C114.55585992 18.54272817 154.97560346 15.32364759 188.76171875 25.14453125 C201.0494986 28.82854269 201.0494986 28.82854269 213.14453125 26.08203125 C217.68981488 23.38566267 221.90016592 20.26982013 226.11132812 17.08398438 C229.62439444 14.57054773 233.3236987 12.71424681 237.25 10.9375 C238.26658691 10.4729541 238.26658691 10.4729541 239.30371094 9.99902344 C250.38620264 5.08113459 261.93909029 0.22206748 274.1875 0.25 C275.32574219 0.24742188 276.46398437 0.24484375 277.63671875 0.2421875 C280.5 0.375 280.5 0.375 282.5 1.375 C291.98383492 23.94214515 294.01465526 49.42835225 285.69140625 72.62890625 C285.2995908 74.46256837 285.2995908 74.46256837 286.6171875 76.0234375 C287.48730469 76.87808594 287.48730469 76.87808594 288.375 77.75 C306.64886894 97.51635624 312.7267393 122.8011736 312.75 149.0625 C312.75100708 149.84645142 312.75201416 150.63040283 312.75305176 151.43811035 C312.74244467 163.63937869 312.18061462 175.42809857 309.5 187.375 C309.2831958 188.36886719 309.2831958 188.36886719 309.06201172 189.3828125 C304.89425416 207.91848732 297.7503099 225.71175027 285.5 240.375 C284.860625 241.24125 284.22125 242.1075 283.5625 243 C260.26212797 269.83073142 222.00612865 278.66499563 188.5 283.375 C189.01949219 283.90867187 189.53898438 284.44234375 190.07421875 284.9921875 C206.05442441 302.06530925 206.6128072 323.94234928 206.69923019 346.12685776 C206.71115625 348.91839066 206.73063535 351.70977816 206.75234985 354.50125122 C206.8135572 362.42949619 206.86815496 370.35771665 206.90136719 378.28613281 C206.92230212 383.15539206 206.95757361 388.024369 207.00212479 392.89346695 C207.01626928 394.74258232 207.02500372 396.59174742 207.02817917 398.44091415 C207.03308469 401.02064485 207.0562258 403.59962167 207.08349609 406.17919922 C207.08048996 406.93875412 207.07748383 407.69830902 207.0743866 408.48088074 C207.16386447 414.17704318 208.50996007 417.38496007 212.5 421.375 C209.29140341 422.4445322 207.00745791 422.4981698 203.63447571 422.49525452 C202.41029938 422.49662918 201.18612305 422.49800385 199.92485046 422.49942017 C198.56619238 422.49588104 197.20753455 422.49224623 195.84887695 422.48852539 C194.41988121 422.48824335 192.99088531 422.48840158 191.56188965 422.4889679 C187.67994704 422.48925523 183.79803523 422.48336884 179.91609979 422.47639394 C175.86018037 422.47014975 171.80426027 422.46955576 167.74833679 422.46836853 C160.06670657 422.46525837 152.38509056 422.4570492 144.70346659 422.44701904 C135.95870442 422.43584815 127.21394156 422.43034499 118.46917403 422.42532361 C100.47944129 422.41486634 82.48972179 422.39727297 64.5 422.375 C64.17 421.715 63.84 421.055 63.5 420.375 C64.304375 419.611875 65.10875 418.84875 65.9375 418.0625 C69.43877048 414.39043584 69.62713358 411.86680395 69.70532227 406.9855957 C69.72526749 405.88468094 69.74521271 404.78376617 69.76576233 403.64949036 C69.78247482 402.46191635 69.79918732 401.27434235 69.81640625 400.05078125 C69.8475779 398.22597481 69.8475779 398.22597481 69.87937927 396.36430359 C69.94484717 392.47209404 70.00374715 388.57981615 70.0625 384.6875 C70.10568782 382.05142518 70.1493022 379.41535731 70.19335938 376.77929688 C70.30052578 370.31127049 70.40229745 363.84317589 70.5 357.375 C69.86626968 357.51588547 69.23253937 357.65677094 68.5796051 357.80192566 C63.29734673 358.92595855 58.32423041 359.63753098 52.90234375 359.67578125 C52.22964447 359.68147125 51.55694519 359.68716125 50.86386108 359.69302368 C48.7214873 359.70498914 46.57986948 359.69901311 44.4375 359.6875 C43.70389252 359.68501251 42.97028503 359.68252502 42.21444702 359.67996216 C21.67767043 359.57201111 4.45029836 357.41691415 -11.21875 342.87890625 C-16.87928851 336.66588367 -20.60697404 330.50031616 -23.8125 322.75 C-30.69403773 306.83699471 -38.79828816 293.85232027 -53.60546875 284.390625 C-57.48954041 281.68592733 -61.20980043 278.58401542 -63.5 274.375 C-63.35546875 272.265625 -63.35546875 272.265625 -62.5 270.375 C-57.31048453 266.91532302 -50.87285968 267.77772277 -44.875 268.83984375 C-26.95337372 273.69361753 -15.34701432 286.27525729 -5.625 301.375 C2.24113082 313.26495927 12.468412 321.9443143 26.5 325.375 C29.90898413 325.76982394 33.25872014 325.80423378 36.6875 325.75 C37.60297607 325.74202393 38.51845215 325.73404785 39.46166992 325.72583008 C47.08385983 325.56721571 54.18142386 324.61199874 61.5 322.375 C62.18288086 322.21136963 62.86576172 322.04773926 63.56933594 321.87915039 C65.7835411 321.24827765 67.55553005 320.61263961 69.5 319.375 C70.83467263 316.49574144 71.51693776 314.46492991 72.125 311.4375 C72.50565131 309.89757013 72.8950585 308.35977952 73.29296875 306.82421875 C73.48681152 306.06802246 73.6806543 305.31182617 73.88037109 304.53271484 C76.23424993 296.33587436 80.66901874 289.48364703 86.5 283.375 C81.2365629 282.30659214 75.96927167 281.27094341 70.6875 280.296875 C38.05783393 274.19125968 4.50358937 261.89223534 -15.18188477 233.35668945 C-30.84021539 209.37384792 -36.66829681 180.88980265 -36.74023438 152.62133789 C-36.749877 150.34157924 -36.7809526 148.06274896 -36.8125 145.78320312 C-36.99396705 120.82346611 -29.55140872 97.59038947 -13.1640625 78.4609375 C-10.89858596 75.64925094 -10.89858596 75.64925094 -9.5 72.375 C-10.09945136 69.29337325 -10.09945136 69.29337325 -11.3125 66.0625 C-18.52836475 45.25224159 -14.83013685 21.30140648 -6.5 1.375 C-4.73834037 -0.38665963 -2.39986324 0.07722332 0 0 Z " fill="#FEFEFE" transform="translate(112.5,77.625)"/>
</svg>
