<?xml version="1.0" encoding="UTF-8"?>
<svg version="1.1" xmlns="http://www.w3.org/2000/svg" width="500" height="500">
<path d="M0 0 C1.10084106 -0.00445784 2.20168213 -0.00891569 3.33588201 -0.01350862 C4.53994355 -0.01332426 5.74400509 -0.01313989 6.98455334 -0.01294994 C8.90963176 -0.01846498 8.90963176 -0.01846498 10.87360066 -0.02409142 C14.43431299 -0.03409066 17.99500847 -0.03782489 21.55573285 -0.04048073 C25.39716659 -0.04439011 29.23858707 -0.0539682 33.08001232 -0.0626936 C42.35802551 -0.08244307 51.63603977 -0.0925236 60.91406873 -0.10142139 C65.28779612 -0.10580793 69.66152231 -0.1111739 74.03524876 -0.11641026 C88.58345602 -0.13342319 103.13166255 -0.14791508 117.67987823 -0.155159 C121.45405929 -0.15706877 125.22824034 -0.15898912 129.00242138 -0.16094494 C129.94043117 -0.16142868 130.87844097 -0.16191242 131.8448753 -0.16241082 C147.02365686 -0.17070255 162.20235939 -0.19602466 177.38110647 -0.22852562 C192.98003478 -0.26165264 208.57892301 -0.27961296 224.17788666 -0.28280324 C232.92984046 -0.28496342 241.68167911 -0.29363954 250.43359852 -0.31926441 C257.89095822 -0.34104888 265.3481748 -0.34898407 272.80556271 -0.33929763 C276.6050665 -0.33477484 280.4042755 -0.3365198 284.20373821 -0.35605907 C313.32847605 -0.4976643 313.32847605 -0.4976643 326.49436474 4.13422108 C327.29168168 4.39447921 328.08899862 4.65473734 328.91047668 4.92288208 C357.30989618 14.71246272 379.5484729 35.28387454 392.7441206 62.03607655 C395.97247527 68.86014756 398.45798395 75.86481524 400.49436474 83.13422108 C400.66803745 83.74959661 400.84171016 84.36497215 401.02064568 84.99899542 C402.71923278 91.70294968 402.7824936 98.19753797 402.7685194 105.08524036 C402.77375608 106.36992698 402.77899276 107.6546136 402.78438812 108.97823012 C402.79849305 112.5241329 402.80023285 116.06994772 402.79979122 119.61587453 C402.80144616 123.44844462 402.81452549 127.28097917 402.825984 131.11353016 C402.84878373 139.48590629 402.85674963 147.85825699 402.86181045 156.23065996 C402.86507422 161.46637662 402.87160091 166.70208598 402.87881184 171.9377985 C402.89837352 186.45613778 402.91477949 200.97447029 402.91768837 215.4928236 C402.91787594 216.42099299 402.91806351 217.34916237 402.91825676 218.30545811 C402.918623 220.18680962 402.9189867 222.06816113 402.91934787 223.94951265 C402.91953069 224.88332287 402.9197135 225.8171331 402.91990185 226.77924061 C402.92017267 228.18168189 402.92017267 228.18168189 402.92044897 229.61245532 C402.9239865 244.7437164 402.95098445 259.87483481 402.98839974 275.00604646 C403.02657469 290.57009152 403.04584653 306.13406598 403.04614788 321.69815886 C403.04673049 330.42501921 403.0550947 339.15170945 403.08414555 347.87852573 C403.10878303 355.31340713 403.11585982 362.74805642 403.10089802 370.18296771 C403.09377847 373.96875211 403.09436869 377.75407937 403.11730862 381.53981113 C403.30227525 414.03113744 396.40943881 438.86363673 375.49436474 464.13422108 C374.86014599 464.96566639 374.22592724 465.7971117 373.57248974 466.65375233 C369.80756702 471.14759805 365.09298015 474.53267734 360.49436474 478.13422108 C359.22399364 479.16289295 359.22399364 479.16289295 357.92795849 480.21234608 C343.7131785 491.2369388 323.20715132 500.23411915 304.98872948 500.26844215 C303.88788841 500.2729 302.78704735 500.27735784 301.65284747 500.28195077 C300.44878593 500.28176641 299.24472439 500.28158205 298.00417614 500.2813921 C296.07909771 500.28690713 296.07909771 500.28690713 294.11512882 500.29253358 C290.55441648 500.30253282 286.99372101 500.30626704 283.43299663 500.30892289 C279.59156289 500.31283227 275.75014241 500.32241035 271.90871716 500.33113575 C262.63070396 500.35088522 253.3526897 500.36096575 244.07466075 500.36986354 C239.70093335 500.37425008 235.32720716 500.37961605 230.95348072 500.38485241 C216.40527345 500.40186535 201.85706693 500.41635724 187.30885124 500.42360115 C183.53467018 500.42551093 179.76048913 500.42743127 175.9863081 500.42938709 C175.0482983 500.42987083 174.11028851 500.43035457 173.14385418 500.43085297 C157.96507262 500.4391447 142.78637009 500.46446682 127.607623 500.49696777 C112.0086947 500.5300948 96.40980646 500.54805512 80.81084281 500.55124539 C72.05888902 500.55340558 63.30705036 500.56208169 54.55513096 500.58770657 C47.09777126 500.60949103 39.64055467 500.61742622 32.18316676 500.60773978 C28.38366298 500.603217 24.58445398 500.60496195 20.78499126 500.62450123 C-8.33974657 500.76610645 -8.33974657 500.76610645 -21.50563526 496.13422108 C-22.70161067 495.74383388 -22.70161067 495.74383388 -23.92174721 495.34556007 C-52.39537919 485.5303976 -74.52740656 465.04705869 -87.75563526 438.23212147 C-90.9836037 431.40795343 -93.46926907 424.40357482 -95.50563526 417.13422108 C-95.76614433 416.21115778 -95.76614433 416.21115778 -96.0319162 415.26944673 C-97.73050331 408.56549247 -97.79376412 402.07090419 -97.77978992 395.18320179 C-97.7850266 393.89851517 -97.79026328 392.61382855 -97.79565865 391.29021204 C-97.80976357 387.74430925 -97.81150337 384.19849444 -97.81106174 380.65256763 C-97.81271668 376.81999754 -97.82579601 372.98746298 -97.83725452 369.15491199 C-97.86005425 360.78253586 -97.86802015 352.41018516 -97.87308097 344.03778219 C-97.87634474 338.80206553 -97.88287144 333.56635618 -97.89008236 328.33064365 C-97.90964404 313.81230437 -97.92605001 299.29397186 -97.92895889 284.77561855 C-97.92924025 283.38336447 -97.92924025 283.38336447 -97.92952729 281.96298405 C-97.92989352 280.08163254 -97.93025722 278.20028102 -97.9306184 276.31892951 C-97.93080121 275.38511928 -97.93098402 274.45130905 -97.93117237 273.48920155 C-97.93135292 272.55424069 -97.93153347 271.61927983 -97.93171949 270.65598683 C-97.93525702 255.52472575 -97.96225498 240.39360735 -97.99967026 225.26239569 C-98.03784521 209.69835063 -98.05711705 194.13437618 -98.05741841 178.57028329 C-98.05800101 169.84342295 -98.06636523 161.1167327 -98.09541607 152.38991642 C-98.12005355 144.95503502 -98.12713034 137.52038573 -98.11216854 130.08547445 C-98.10504899 126.29969005 -98.10563922 122.51436278 -98.12857914 118.72863102 C-98.32827316 83.65028582 -89.83829075 55.72232582 -64.88063526 30.13422108 C-48.43392806 13.80476701 -23.71467283 0.04467779 0 0 Z " fill="#000000" transform="translate(97.50563526153564,-0.13422107696533203)"/>
<path d="M0 0 C1.14946106 -0.00309677 1.14946106 -0.00309677 2.32214355 -0.0062561 C17.55084161 0.00108944 30.96709484 2.23608711 44.9375 8.4375 C46.6017135 9.11026716 48.26736582 9.77956835 49.9375 10.4375 C49.9375 11.0975 49.9375 11.7575 49.9375 12.4375 C51.02611328 12.80681641 51.02611328 12.80681641 52.13671875 13.18359375 C66.83125398 19.76231873 76.33638979 36.38641536 81.85936797 50.70371437 C84.82021959 59.06933016 84.73672053 67.18277832 84.61865234 75.9609375 C84.61695516 77.75637759 84.61791913 79.55182183 84.62130737 81.34725952 C84.62301212 86.16884786 84.58801212 90.98952029 84.54586363 95.81089783 C84.50807259 100.86900043 84.50480908 105.92712956 84.49771118 110.98535156 C84.47914506 120.54024677 84.43002068 130.09472461 84.36961424 139.64943695 C84.30229127 150.53708698 84.26949554 161.42475811 84.23944163 172.31256485 C84.17691327 194.68782713 84.06698485 217.0625181 83.9375 239.4375 C60.5075 239.4375 37.0775 239.4375 12.9375 239.4375 C12.87691406 230.42050781 12.81632813 221.40351563 12.75390625 212.11328125 C12.71338885 206.38476147 12.67264107 200.65624484 12.63085938 194.92773438 C12.56465322 185.84466138 12.49936027 176.76158869 12.44018555 167.6784668 C12.3970734 161.06156287 12.35073077 154.44469051 12.30062145 147.82783574 C12.27423612 144.32919202 12.24939201 140.83055368 12.22842598 137.33187294 C12.20487338 133.4117173 12.1741034 129.49163512 12.14282227 125.5715332 C12.1370668 124.430728 12.13131134 123.28992279 12.12538147 122.11454773 C12.54104875 103.46943759 12.54104875 103.46943759 5.875 86.625 C-6.85660482 77.14401768 -22.65329557 76.85676204 -37.9375 79.0625 C-45.87992517 80.80296971 -53.91045523 84.20685185 -59.00439453 90.73339844 C-60.82922257 93.67232314 -61.59075473 96.84942814 -62.3125 100.1875 C-62.47234375 100.83976562 -62.6321875 101.49203125 -62.796875 102.1640625 C-64.99169079 111.56519014 -65.21731074 121.06588295 -65.26782227 130.68017578 C-65.27772186 131.86181808 -65.28762146 133.04346039 -65.29782104 134.26091003 C-65.32920222 138.13485771 -65.3541003 142.00881762 -65.37890625 145.8828125 C-65.39898352 148.58137736 -65.42044781 151.27993071 -65.44187927 153.97848511 C-65.49157519 160.33529475 -65.53659862 166.69212836 -65.57990164 173.04898441 C-65.63434494 181.0040424 -65.69509956 188.95905067 -65.75585938 196.9140625 C-65.86409514 211.08850328 -65.96285867 225.26299042 -66.0625 239.4375 C-90.1525 239.4375 -114.2425 239.4375 -139.0625 239.4375 C-139.0625 161.2275 -139.0625 83.0175 -139.0625 2.4375 C-115.9625 2.4375 -92.8625 2.4375 -69.0625 2.4375 C-69.0625 6.0675 -69.0625 9.6975 -69.0625 13.4375 C-67.67160156 12.97859375 -66.28070313 12.5196875 -64.84765625 12.046875 C-53.37729646 8.30301324 -41.93423901 4.68741205 -30.0625 2.4375 C-29.14299561 2.26162354 -28.22349121 2.08574707 -27.27612305 1.90454102 C-18.16492334 0.32432285 -9.22063207 0.00062171 0 0 Z " fill="#FCFCFC" transform="translate(344.0625,176.5625)"/>
<path d="M0 0 C23.76 0 47.52 0 72 0 C72 77.88 72 155.76 72 236 C48.24 236 24.48 236 0 236 C0 158.12 0 80.24 0 0 Z " fill="#FDFDFD" transform="translate(73,179)"/>
<path d="M0 0 C0 0.66 0 1.32 0 2 C0.88558594 2.24363281 1.77117187 2.48726563 2.68359375 2.73828125 C11.30732627 6.01915946 18.11885162 14.38176066 22.25 22.4375 C25.869131 34.80286426 24.56865227 46.51627076 18.5625 57.75 C12.0326367 68.86425111 2.43609517 74.70148717 -10 78 C-21.96393282 79.52533512 -32.3097392 77.19621009 -41.875 69.8125 C-50.85411344 61.93313388 -56.17200623 52.42107296 -57.34375 40.50390625 C-57.84573042 27.84145015 -54.65465511 18.72646222 -45.9375 9.0625 C-33.4004946 -2.15150483 -16.05407171 -6.52196663 0 0 Z " fill="#FBFBFB" transform="translate(126,68)"/>
</svg>
