<?xml version="1.0" encoding="UTF-8"?>
<svg version="1.1" xmlns="http://www.w3.org/2000/svg" width="500" height="500">
<path d="M0 0 C1.10084106 -0.00445784 2.20168213 -0.00891569 3.33588201 -0.01350862 C4.53994355 -0.01332426 5.74400509 -0.01313989 6.98455334 -0.01294994 C8.90963176 -0.01846498 8.90963176 -0.01846498 10.87360066 -0.02409142 C14.43431299 -0.03409066 17.99500847 -0.03782489 21.55573285 -0.04048073 C25.39716659 -0.04439011 29.23858707 -0.0539682 33.08001232 -0.0626936 C42.35802551 -0.08244307 51.63603977 -0.0925236 60.91406873 -0.10142139 C65.28779612 -0.10580793 69.66152231 -0.1111739 74.03524876 -0.11641026 C88.58345602 -0.13342319 103.13166255 -0.14791508 117.67987823 -0.155159 C121.45405929 -0.15706877 125.22824034 -0.15898912 129.00242138 -0.16094494 C129.94043117 -0.16142868 130.87844097 -0.16191242 131.8448753 -0.16241082 C147.02365686 -0.17070255 162.20235939 -0.19602466 177.38110647 -0.22852562 C192.98003478 -0.26165264 208.57892301 -0.27961296 224.17788666 -0.28280324 C232.92984046 -0.28496342 241.68167911 -0.29363954 250.43359852 -0.31926441 C257.89095822 -0.34104888 265.3481748 -0.34898407 272.80556271 -0.33929763 C276.6050665 -0.33477484 280.4042755 -0.3365198 284.20373821 -0.35605907 C313.32847605 -0.4976643 313.32847605 -0.4976643 326.49436474 4.13422108 C327.29168168 4.39447921 328.08899862 4.65473734 328.91047668 4.92288208 C357.30989618 14.71246272 379.5484729 35.28387454 392.7441206 62.03607655 C395.97247527 68.86014756 398.45798395 75.86481524 400.49436474 83.13422108 C400.66803745 83.74959661 400.84171016 84.36497215 401.02064568 84.99899542 C402.71923278 91.70294968 402.7824936 98.19753797 402.7685194 105.08524036 C402.77375608 106.36992698 402.77899276 107.6546136 402.78438812 108.97823012 C402.79849305 112.5241329 402.80023285 116.06994772 402.79979122 119.61587453 C402.80144616 123.44844462 402.81452549 127.28097917 402.825984 131.11353016 C402.84878373 139.48590629 402.85674963 147.85825699 402.86181045 156.23065996 C402.86507422 161.46637662 402.87160091 166.70208598 402.87881184 171.9377985 C402.89837352 186.45613778 402.91477949 200.97447029 402.91768837 215.4928236 C402.91787594 216.42099299 402.91806351 217.34916237 402.91825676 218.30545811 C402.918623 220.18680962 402.9189867 222.06816113 402.91934787 223.94951265 C402.91953069 224.88332287 402.9197135 225.8171331 402.91990185 226.77924061 C402.92017267 228.18168189 402.92017267 228.18168189 402.92044897 229.61245532 C402.9239865 244.7437164 402.95098445 259.87483481 402.98839974 275.00604646 C403.02657469 290.57009152 403.04584653 306.13406598 403.04614788 321.69815886 C403.04673049 330.42501921 403.0550947 339.15170945 403.08414555 347.87852573 C403.10878303 355.31340713 403.11585982 362.74805642 403.10089802 370.18296771 C403.09377847 373.96875211 403.09436869 377.75407937 403.11730862 381.53981113 C403.30227525 414.03113744 396.40943881 438.86363673 375.49436474 464.13422108 C374.86014599 464.96566639 374.22592724 465.7971117 373.57248974 466.65375233 C369.80756702 471.14759805 365.09298015 474.53267734 360.49436474 478.13422108 C359.22399364 479.16289295 359.22399364 479.16289295 357.92795849 480.21234608 C343.7131785 491.2369388 323.20715132 500.23411915 304.98872948 500.26844215 C303.88788841 500.2729 302.78704735 500.27735784 301.65284747 500.28195077 C300.44878593 500.28176641 299.24472439 500.28158205 298.00417614 500.2813921 C296.07909771 500.28690713 296.07909771 500.28690713 294.11512882 500.29253358 C290.55441648 500.30253282 286.99372101 500.30626704 283.43299663 500.30892289 C279.59156289 500.31283227 275.75014241 500.32241035 271.90871716 500.33113575 C262.63070396 500.35088522 253.3526897 500.36096575 244.07466075 500.36986354 C239.70093335 500.37425008 235.32720716 500.37961605 230.95348072 500.38485241 C216.40527345 500.40186535 201.85706693 500.41635724 187.30885124 500.42360115 C183.53467018 500.42551093 179.76048913 500.42743127 175.9863081 500.42938709 C175.0482983 500.42987083 174.11028851 500.43035457 173.14385418 500.43085297 C157.96507262 500.4391447 142.78637009 500.46446682 127.607623 500.49696777 C112.0086947 500.5300948 96.40980646 500.54805512 80.81084281 500.55124539 C72.05888902 500.55340558 63.30705036 500.56208169 54.55513096 500.58770657 C47.09777126 500.60949103 39.64055467 500.61742622 32.18316676 500.60773978 C28.38366298 500.603217 24.58445398 500.60496195 20.78499126 500.62450123 C-8.33974657 500.76610645 -8.33974657 500.76610645 -21.50563526 496.13422108 C-22.70161067 495.74383388 -22.70161067 495.74383388 -23.92174721 495.34556007 C-52.39537919 485.5303976 -74.52740656 465.04705869 -87.75563526 438.23212147 C-90.9836037 431.40795343 -93.46926907 424.40357482 -95.50563526 417.13422108 C-95.76614433 416.21115778 -95.76614433 416.21115778 -96.0319162 415.26944673 C-97.73050331 408.56549247 -97.79376412 402.07090419 -97.77978992 395.18320179 C-97.7850266 393.89851517 -97.79026328 392.61382855 -97.79565865 391.29021204 C-97.80976357 387.74430925 -97.81150337 384.19849444 -97.81106174 380.65256763 C-97.81271668 376.81999754 -97.82579601 372.98746298 -97.83725452 369.15491199 C-97.86005425 360.78253586 -97.86802015 352.41018516 -97.87308097 344.03778219 C-97.87634474 338.80206553 -97.88287144 333.56635618 -97.89008236 328.33064365 C-97.90964404 313.81230437 -97.92605001 299.29397186 -97.92895889 284.77561855 C-97.92924025 283.38336447 -97.92924025 283.38336447 -97.92952729 281.96298405 C-97.92989352 280.08163254 -97.93025722 278.20028102 -97.9306184 276.31892951 C-97.93080121 275.38511928 -97.93098402 274.45130905 -97.93117237 273.48920155 C-97.93135292 272.55424069 -97.93153347 271.61927983 -97.93171949 270.65598683 C-97.93525702 255.52472575 -97.96225498 240.39360735 -97.99967026 225.26239569 C-98.03784521 209.69835063 -98.05711705 194.13437618 -98.05741841 178.57028329 C-98.05800101 169.84342295 -98.06636523 161.1167327 -98.09541607 152.38991642 C-98.12005355 144.95503502 -98.12713034 137.52038573 -98.11216854 130.08547445 C-98.10504899 126.29969005 -98.10563922 122.51436278 -98.12857914 118.72863102 C-98.32827316 83.65028582 -89.83829075 55.72232582 -64.88063526 30.13422108 C-48.43392806 13.80476701 -23.71467283 0.04467779 0 0 Z " fill="#000000" transform="translate(97.50563526153564,-0.13422107696533203)"/>
<path d="M0 0 C7.689016 6.25983087 10.24720516 12.94776781 11.43969727 22.66210938 C12.8476085 38.22292284 11.26218165 53.88352046 9.9765625 69.3984375 C9.79164522 71.67488433 9.60674955 73.95133291 9.421875 76.2277832 C8.89455925 82.66115636 8.34753963 89.09269955 7.7890625 95.5234375 C7.71689514 96.35715881 7.64472778 97.19088013 7.57037354 98.04986572 C5.10947094 126.24811321 0.97678963 151.97773452 -21.484375 171.453125 C-36.31272119 182.71247096 -55.18570521 185.38034086 -73.25390625 186.27734375 C-76.0961335 186.1932916 -76.0961335 186.1932916 -77.2109375 187.5234375 C-76.22996094 187.86375 -75.24898438 188.2040625 -74.23828125 188.5546875 C-56.4982377 194.85876243 -38.47399601 202.8756771 -29.21875 220.40234375 C-24.6076934 230.56862569 -25.36987807 240.90048168 -28.8984375 251.265625 C-33.31164592 262.21983876 -40.09746446 270.2086082 -48.2109375 278.5234375 C-49.17966797 279.60238281 -49.17966797 279.60238281 -50.16796875 280.703125 C-60.23134097 291.62155499 -78.34192619 304.0544889 -93.3828125 304.859375 C-106.45124336 305.11762195 -115.00169516 302.97935344 -125.2109375 294.5234375 C-126.2009375 293.7809375 -127.1909375 293.0384375 -128.2109375 292.2734375 C-143.05159786 279.59871135 -152.45529092 259.069652 -158.16796875 240.80078125 C-159.06689012 237.97608077 -160.06895577 235.25695939 -161.2109375 232.5234375 C-161.8709375 232.5234375 -162.5309375 232.5234375 -163.2109375 232.5234375 C-163.60023438 233.74675781 -163.98953125 234.97007812 -164.390625 236.23046875 C-171.94376873 259.25637839 -184.5775491 287.68209542 -206.55859375 300.26953125 C-213.14362444 303.38263118 -218.62730789 305.06326722 -225.9609375 304.9609375 C-226.75024658 304.95118896 -227.53955566 304.94144043 -228.3527832 304.93139648 C-245.58809848 304.41273709 -260.28109227 294.31293161 -272.2109375 282.5234375 C-273.02949219 281.76546875 -273.84804688 281.0075 -274.69140625 280.2265625 C-285.81011109 269.67672162 -297.08309025 255.65435268 -298.546875 239.91015625 C-298.66729432 228.50644617 -297.00277894 220.73461826 -289.03515625 212.3828125 C-288.13216797 211.46242188 -288.13216797 211.46242188 -287.2109375 210.5234375 C-286.72238281 209.95109375 -286.23382813 209.37875 -285.73046875 208.7890625 C-275.98945447 197.87111333 -261.78131159 192.78319618 -248.2109375 188.5234375 C-247.2209375 188.1934375 -246.2309375 187.8634375 -245.2109375 187.5234375 C-246.31308594 187.49765625 -247.41523438 187.471875 -248.55078125 187.4453125 C-273.15299662 186.62505638 -295.69671605 179.72625227 -313.2109375 161.5234375 C-339.8152079 129.99245036 -338.01417201 62.8406285 -336.2109375 23.5234375 C-335.40235234 14.29111369 -332.51560454 7.01720002 -325.37109375 0.96484375 C-318.01848304 -4.52241118 -310.02066604 -4.3477667 -301.2109375 -3.4765625 C-278.36356427 1.34703329 -258.5325941 16.52563977 -242.2109375 32.5234375 C-241.44990723 33.26932129 -240.68887695 34.01520508 -239.90478516 34.78369141 C-237.37462747 37.27311222 -234.85306243 39.77084143 -232.3359375 42.2734375 C-231.53905518 43.06548584 -230.74217285 43.85753418 -229.92114258 44.67358398 C-203.04631162 71.62735077 -182.08666345 103.66807833 -163.2109375 136.5234375 C-159.71031818 135.35656439 -159.60098697 134.92467515 -158.00390625 131.7890625 C-157.38261841 130.60268188 -157.38261841 130.60268188 -156.7487793 129.39233398 C-156.3031665 128.52809814 -155.85755371 127.6638623 -155.3984375 126.7734375 C-141.48203865 100.68635722 -123.36525093 76.8422418 -103.4765625 55.03515625 C-101.62242407 52.97962002 -99.80871711 50.8997978 -98 48.8046875 C-79.77889979 27.96564107 -31.54953838 -21.07018641 0 0 Z " fill="#FDFDFD" transform="translate(412.2109375,115.4765625)"/>
</svg>
